<svg width="24" height="24" viewBox="0 0 24 24" fill="none" xmlns="http://www.w3.org/2000/svg">
<g clip-path="url(#clip0_1_16013)">
<path fill-rule="evenodd" clip-rule="evenodd" d="M0.362427 17.2141V10.791H2.64159H4.92075V17.2141V23.6373H2.64159H0.362427V17.2141Z" fill="white"/>
<path fill-rule="evenodd" clip-rule="evenodd" d="M5.54236 17.2141V10.791H7.82152H10.1007V17.2141V23.6373H7.82152H5.54236V17.2141Z" fill="white"/>
<path fill-rule="evenodd" clip-rule="evenodd" d="M10.8604 21.3583V19.0791H17.249H23.6376V21.3583V23.6374H17.249H10.8604V21.3583Z" fill="white"/>
<path fill-rule="evenodd" clip-rule="evenodd" d="M10.8604 16.1786V13.8994H17.249H23.6376V16.1786V18.4577H17.249H10.8604V16.1786Z" fill="white"/>
<path fill-rule="evenodd" clip-rule="evenodd" d="M13.8994 6.75086V0.362305H16.1786H18.4577V6.75086V13.1395H16.1786H13.8994V6.75086Z" fill="white"/>
<path fill-rule="evenodd" clip-rule="evenodd" d="M19.0792 6.75086V0.362305H21.3584H23.6375V6.75086V13.1395H21.3584H19.0792V6.75086Z" fill="white"/>
<path fill-rule="evenodd" clip-rule="evenodd" d="M0.362427 7.82115V5.54199H6.75099H13.1397V7.82115V10.1003H6.75099H0.362427V7.82115Z" fill="white"/>
<path fill-rule="evenodd" clip-rule="evenodd" d="M0.362427 2.64146V0.362305H6.75099H13.1397V2.64146V4.92062H6.75099H0.362427V2.64146Z" fill="white"/>
</g>
<defs>
<clipPath id="clip0_1_16013">
<rect width="24" height="24" fill="white"/>
</clipPath>
</defs>
</svg>
