<svg width="18" height="25" viewBox="0 0 18 25" fill="none" xmlns="http://www.w3.org/2000/svg">
<path d="M0.147732 24.8615C0.125667 24.8771 0.0966134 24.8815 0.0606959 24.875C0.0491729 24.8732 0.0383859 24.8685 0.0290694 24.8615C0.0197529 24.8547 0.012276 24.8456 0.00724996 24.8351C0.00222396 24.8246 -0.000228447 24.8131 1.67235e-05 24.8015C0.00038448 24.7898 0.00357132 24.7786 0.00921025 24.7684L13.5782 0.182661C13.6452 0.0600757 13.7486 -0.000809118 13.8883 8.11815e-06H17.1086C17.118 7.71487e-05 17.1272 0.00215164 17.1356 0.00608913C17.1441 0.0100266 17.1516 0.0157351 17.1576 0.0228282C17.1637 0.0299215 17.1681 0.0382323 17.1707 0.0471972C17.1732 0.0561621 17.1737 0.0655714 17.1724 0.0747853C17.1519 0.226792 17.0789 0.416798 16.953 0.644807C12.5227 8.67823 8.08881 16.7129 3.65122 24.7488C3.63026 24.7868 3.59986 24.8185 3.56284 24.841C3.52582 24.8633 3.48353 24.8755 3.44038 24.8763C2.34851 24.8975 1.251 24.8926 0.147732 24.8615Z" fill="white"/>
</svg>
