<svg width="17" height="18" viewBox="0 0 17 18" fill="none" xmlns="http://www.w3.org/2000/svg">
<path d="M6.69298 0.141026C13.7061 -0.887465 17.0245 3.82962 16.4459 10.3732C16.4443 10.3912 16.4362 10.4082 16.4229 10.4204C16.4098 10.4327 16.3927 10.4394 16.3748 10.4394C12.2771 10.4403 8.18157 10.448 4.08804 10.4627C3.87882 10.4636 3.6692 10.4701 3.45918 10.4823C3.44202 10.4829 3.4257 10.4899 3.41344 10.5019C3.4012 10.514 3.39389 10.5301 3.39298 10.5473C3.37214 10.8599 3.43343 11.1872 3.46776 11.4458C3.8821 14.6184 7.68102 14.6637 10.042 14.3425C11.2532 14.1771 12.1321 13.6928 12.6506 12.5773C12.658 12.5613 12.6699 12.5475 12.6848 12.538C12.6998 12.5284 12.7173 12.5234 12.7352 12.5234H15.8832C15.9004 12.5234 15.9174 12.5273 15.9329 12.5349C15.9483 12.5425 15.9618 12.5535 15.9723 12.5671C15.9829 12.5807 15.9901 12.5966 15.9935 12.6135C15.9971 12.6303 15.9966 12.6477 15.9923 12.6643C14.8412 17.2208 10.1413 18.1169 6.14135 17.5114C4.69852 17.2932 3.29124 16.7342 2.24558 15.7179C-0.0124403 13.5261 -0.29316 9.41093 0.216795 6.51424C0.830948 3.02301 3.14046 0.662014 6.69298 0.141026ZM3.4224 7.30614C6.64149 7.36376 9.87407 7.28285 13.0981 7.30001C13.106 7.30026 13.1139 7.29854 13.1211 7.29523C13.1283 7.29192 13.1348 7.2869 13.1399 7.28064C13.1449 7.27439 13.1486 7.26704 13.1504 7.25919C13.1524 7.25122 13.1525 7.24301 13.1508 7.23504C13.0564 6.79128 13.0172 6.26417 12.8848 5.87067C12.3364 4.25009 11.171 3.32907 9.38863 3.10759C6.36077 2.73371 3.7019 3.91298 3.35008 7.22278C3.34906 7.2332 3.35015 7.24362 3.3533 7.25355C3.35644 7.26348 3.36156 7.27268 3.36835 7.28052C3.37513 7.28837 3.38343 7.29462 3.39274 7.29903C3.40204 7.30344 3.41213 7.3059 3.4224 7.30614Z" fill="white"/>
</svg>
